<?xml version="1.0" encoding="UTF-8" standalone="no"?><svg xmlns="http://www.w3.org/2000/svg" xmlns:xlink="http://www.w3.org/1999/xlink" width="683" height="784" viewBox="0 0 683 784">
  <defs>
    <clipPath id="clip-path">
      <path id="Path_79" data-name="Path 79" d="M0,0H281.7V160H0Z" fill="none"/>
    </clipPath>
    <clipPath id="clip-My_Insights">
      <rect width="683" height="784"/>
    </clipPath>
  </defs>
  <g id="My_Insights" data-name="My Insights" clip-path="url(#clip-My_Insights)">
    <rect width="683" height="784" fill="#fff"/>
    <rect id="Rectangle_1" data-name="Rectangle 1" width="683" height="784" fill="#36393f"/>
    <rect id="Rectangle_2" data-name="Rectangle 2" width="322" height="104" rx="5" transform="translate(15 208)" fill="#2f3136"/>
    <rect id="Rectangle_5" data-name="Rectangle 5" width="322" height="104" rx="5" transform="translate(15 328)" fill="#2f3136"/>
    <rect id="Rectangle_3" data-name="Rectangle 3" width="322" height="104" rx="5" transform="translate(347 208)" fill="#2f3136"/>
    <rect id="Rectangle_4" data-name="Rectangle 4" width="322" height="104" rx="5" transform="translate(347 328)" fill="#2f3136"/>
    <rect id="Rectangle_6" data-name="Rectangle 6" width="458" height="200" rx="8" transform="translate(113 573)" fill="#2f3136"/>
    <g id="f2a78cdd6471e760e88d1835e8b137d0" transform="translate(201 473)" clip-path="url(#clip-path)">
      <path id="Path_1" data-name="Path 1" d="M269.48,143.71H266.7a5.451,5.451,0,0,1-5.43-5.43V83.15A14.51,14.51,0,0,0,246.8,68.68H157.93V35.06H84.54A29.64,29.64,0,0,0,54.91,64.7V91.61a7,7,0,0,1-7,7H35.2a14.508,14.508,0,0,0-14.48,14.47v10a12.916,12.916,0,0,1-3.8,9.15L3,146.16a10.062,10.062,0,0,0-3,7.14V160H281.7v-4.08a12.229,12.229,0,0,0-12.22-12.21ZM71.36,111l1.34,2.81a.768.768,0,0,1-1,1l-2.8-1.36a.777.777,0,0,0-.67,0l-2.81,1.36a.77.77,0,0,1-1-1l1.3-2.81a.793.793,0,0,0,0-.67l-1.35-2.81a.77.77,0,0,1,1-1l2.81,1.36a.874.874,0,0,0,.67,0l2.8-1.36a.77.77,0,0,1,1,1l-1.34,2.81a.717.717,0,0,0,.05.67Z" fill="#aec7ff" opacity="0.2"/>
      <path id="Path_2" data-name="Path 2" d="M60.21,140.17a.5.5,0,0,1-.34-.13.493.493,0,0,1-.109-.54.482.482,0,0,1,.109-.16,5.66,5.66,0,0,1,7.48-.68.51.51,0,0,1,.1.7.5.5,0,0,1-.7.1,4.652,4.652,0,0,0-6.14.55.5.5,0,0,1-.4.16Zm-2.55,7.59a.467.467,0,0,1-.27-.09.5.5,0,0,1-.14-.69c3.21-4.83,10.11-6.38,15.38-3.44a.5.5,0,0,1,.19.68.492.492,0,0,1-.68.19,10.809,10.809,0,0,0-14.06,3.12.483.483,0,0,1-.42.23Zm-.35,7.04a.5.5,0,0,1-.41-.79c4.82-6.86,14.83-8.85,22.32-4.44a.5.5,0,0,1-.51.86c-7-4.15-16.47-2.29-21,4.16a.536.536,0,0,1-.4.21Z" fill="#fff"/>
      <path id="Path_3" data-name="Path 3" d="M229.13,11.53a1.31,1.31,0,1,0-2.62,0v1.32a1.31,1.31,0,0,0,2.62,0Zm0,10.5a1.31,1.31,0,1,0-2.62,0v1.32a1.31,1.31,0,0,0,2.62,0Zm4.59-3.29a1.31,1.31,0,1,0,0-2.62H232.4a1.31,1.31,0,0,0,0,2.62Zm-10.49.01a1.31,1.31,0,0,0,0-2.62h-1.32a1.31,1.31,0,0,0,0,2.62Z" fill="#7192ff"/>
      <path id="Path_4" data-name="Path 4" d="M269.58,109.54l-1.28,2.67a.73.73,0,0,0,1,1l2.7-1.31a.76.76,0,0,1,.63,0l2.68,1.29a.73.73,0,0,0,1-1L275,109.54a.7.7,0,0,1,0-.63l1.28-2.68a.721.721,0,0,0-1-1l-2.68,1.28a.7.7,0,0,1-.63,0l-2.67-1.28a.73.73,0,0,0-1,1l1.28,2.68A.7.7,0,0,1,269.58,109.54Z" fill="#aac3ff"/>
      <path id="Path_5" data-name="Path 5" d="M30.2,57.98h-.01a1.161,1.161,0,0,0-1.16,1.16v1.17a1.161,1.161,0,0,0,1.16,1.16h.01a1.161,1.161,0,0,0,1.16-1.16V59.14A1.161,1.161,0,0,0,30.2,57.98Zm0,9.31h-.01a1.161,1.161,0,0,0-1.16,1.16v1.17a1.161,1.161,0,0,0,1.16,1.16h.01a1.161,1.161,0,0,0,1.16-1.16V68.45A1.161,1.161,0,0,0,30.2,67.29Zm6.39-2.91v-.01a1.161,1.161,0,0,0-1.16-1.16H34.26a1.161,1.161,0,0,0-1.16,1.16v.01a1.161,1.161,0,0,0,1.16,1.16h1.17A1.161,1.161,0,0,0,36.59,64.38Zm-9.31,0v-.01a1.161,1.161,0,0,0-1.16-1.16H24.95a1.161,1.161,0,0,0-1.16,1.16v.01a1.161,1.161,0,0,0,1.16,1.16h1.17A1.161,1.161,0,0,0,27.28,64.38Z" fill="#d0e0ff"/>
      <path id="Path_6" data-name="Path 6" d="M220,129.12c0,15.46,15,15.5,15.09,30.88H90.88C91,144.61,106,144.57,106,129.12s-15.09-15.5-15.09-31S106,82.63,106,67.13c0-8.76-12.76-20-9.61-27.61,3.28-7.88,20.36-6.76,26.31-12.7s4.82-23,12.72-26.32c7.6-3.15,18.84,9.62,27.59,9.62S183-2.65,190.58.5c7.9,3.28,6.77,20.37,12.71,26.32s23.05,4.82,26.33,12.7c3.14,7.62-9.62,18.85-9.62,27.61,0,15.5,15.09,15.5,15.09,31S220,113.62,220,129.12Z" fill="#7191fa"/>
      <path id="Path_7" data-name="Path 7" d="M207.31,124.88c0,13.24,11.66,13.27,11.73,26.44H106.93c.06-13.18,11.74-13.21,11.74-26.44s-11.74-13.28-11.74-26.54,11.74-13.27,11.74-26.54c0-7.5-9.93-17.12-7.48-23.64,2.55-6.75,15.83-5.79,20.46-10.87s3.74-19.73,9.88-22.54C147.44,12.05,156.18,23,163,23s15.55-10.93,21.46-8.23c6.14,2.81,5.26,17.44,9.88,22.54s17.91,4.12,20.46,10.87c2.45,6.52-7.47,16.14-7.47,23.64,0,13.27,11.73,13.27,11.73,26.54s-11.75,13.24-11.75,26.52Z" fill="#6386fa"/>
      <path id="Path_8" data-name="Path 8" d="M163,28a42.22,42.22,0,0,1,42.2,42.23V160H120.77V70.23A42.224,42.224,0,0,1,163.008,28Z" fill="#18191c"/>
      <path id="Path_9" data-name="Path 9" d="M78.87,48.23V45.3l-1.09.47a3.88,3.88,0,0,0-2.35,3.55v2a7.312,7.312,0,0,1-2.141,5.171l-.929.939v4.23H82.61V59.49a10.52,10.52,0,0,0-2.07-6.26l-.1-.14a7.93,7.93,0,0,1-1.57-4.86Z" fill="#ff9b00"/>
      <path id="Path_10" data-name="Path 10" d="M76.63,67.66a5.98,5.98,0,1,0-5.98-5.98A5.98,5.98,0,0,0,76.63,67.66Z" fill="#ff9b00"/>
      <path id="Path_11" data-name="Path 11" d="M79.44,56.34h-.41V54.01a1.58,1.58,0,0,1,1.58-1.58h.42v2.34a1.578,1.578,0,0,1-1.59,1.57Zm-2.809,1.889,1.726,1.725a2.44,2.44,0,1,1-3.451,0Z" fill="#ffda13"/>
      <path id="Path_12" data-name="Path 12" d="M76.77,71.65h-.28a6.12,6.12,0,0,1-6.11-6.11v-3.8a.75.75,0,0,1,1.5,0v3.8a4.61,4.61,0,0,0,4.61,4.61h.28a4.62,4.62,0,0,0,4.61-4.61v-3.8a.75.75,0,0,1,1.5,0v3.8A6.12,6.12,0,0,1,76.77,71.65Z" fill="#848a9b"/>
      <path id="Path_13" data-name="Path 13" d="M84.72,65.54H68.54a.75.75,0,0,1,0-1.5H84.72a.75.75,0,0,1,0,1.5Z" fill="#848a9b"/>
      <path id="Path_14" data-name="Path 14" d="M77.93,83.79a4.19,4.19,0,1,0-4.19-4.19,4.19,4.19,0,0,0,4.19,4.19Z" fill="#9fa6b9"/>
      <path id="Path_15" data-name="Path 15" d="M76.63,87.3a.75.75,0,0,1-.75-.75V61.74a.75.75,0,0,1,1.5,0V86.55a.76.76,0,0,1-.75.75Z" fill="#848a9b"/>
      <path id="Path_16" data-name="Path 16" d="M248.79,48.23V45.3l-1.09.47a3.86,3.86,0,0,0-2.35,3.55v2a7.318,7.318,0,0,1-2.139,5.169l-.931.941v4.23h10.21V59.49a10.517,10.517,0,0,0-2.07-6.26l-.1-.14a7.869,7.869,0,0,1-1.53-4.86Z" fill="#ff9b00"/>
      <path id="Path_17" data-name="Path 17" d="M246.54,67.66a5.98,5.98,0,1,0-5.98-5.98A5.98,5.98,0,0,0,246.54,67.66Z" fill="#ff9b00"/>
      <path id="Path_18" data-name="Path 18" d="M249.35,56.34h-.42V54.01a1.577,1.577,0,0,1,1.58-1.58h.42v2.34A1.581,1.581,0,0,1,249.35,56.34Zm-2.807,1.89,1.725,1.726a2.44,2.44,0,1,1-3.443.007l1.725-1.725Z" fill="#ffda13"/>
      <path id="Path_19" data-name="Path 19" d="M246.68,71.65h-.27a6.122,6.122,0,0,1-6.12-6.11v-3.8a.75.75,0,0,1,1.5,0v3.8a4.622,4.622,0,0,0,4.62,4.61h.27a4.618,4.618,0,0,0,4.62-4.61v-3.8a.75.75,0,0,1,1.5,0v3.8a6.123,6.123,0,0,1-6.12,6.11Z" fill="#848a9b"/>
      <path id="Path_20" data-name="Path 20" d="M254.64,65.54H238.45a.75.75,0,1,1,0-1.5h16.19a.75.75,0,1,1,0,1.5Z" fill="#848a9b"/>
      <path id="Path_21" data-name="Path 21" d="M247.85,83.79a4.19,4.19,0,1,0-4.19-4.19,4.19,4.19,0,0,0,4.19,4.19Z" fill="#9fa6b9"/>
      <path id="Path_22" data-name="Path 22" d="M246.55,87.3a.748.748,0,0,1-.75-.75V61.74a.75.75,0,0,1,1.5,0V86.55a.762.762,0,0,1-.75.75Z" fill="#848a9b"/>
      <path id="Path_23" data-name="Path 23" d="M135.2,154.74a.86.86,0,1,0-.86-.86.86.86,0,0,0,.86.86Z" fill="#1c48b0"/>
      <path id="Path_24" data-name="Path 24" d="M89.33,160a.471.471,0,0,1-.33-.13L54.25,128.05a.5.5,0,0,1,.66-.75A58.435,58.435,0,0,0,92,140.55h6.64a.5.5,0,0,1,0,1H92a60.012,60.012,0,0,1-31-8.65l28.64,26.23a.492.492,0,0,1,.148.355.5.5,0,0,1-.148.355.523.523,0,0,1-.31.16Z" fill="#fff"/>
      <path id="Path_25" data-name="Path 25" d="M67,139.56a.5.5,0,0,1-.5-.5,2.9,2.9,0,0,1,3-2.78.5.5,0,1,1,0,1,1.9,1.9,0,0,0-2,1.78A.5.5,0,0,1,67,139.56Zm5.38,4.92a.513.513,0,0,1-.5-.5,5.509,5.509,0,0,1,5.71-5.27.5.5,0,1,1,0,1A4.513,4.513,0,0,0,72.88,144a.5.5,0,0,1-.5.48ZM79,150.5a.5.5,0,0,1-.5-.5c0-5.29,4.68-9.6,10.44-9.6a.508.508,0,0,1,.5.5.5.5,0,0,1-.5.5c-5.2,0-9.44,3.86-9.44,8.6a.5.5,0,0,1-.5.5Z" fill="#fff"/>
      <path id="Path_26" data-name="Path 26" d="M153.67,45.89c5.64,8.84,14.77,8.84,20.41,0C168.44,37.05,159.31,37.05,153.67,45.89Z" fill="#ccdefa"/>
      <path id="Path_27" data-name="Path 27" d="M163.19,51a5.11,5.11,0,1,0-5.11-5.11A5.11,5.11,0,0,0,163.19,51Z" fill="#7191fa"/>
      <path id="Path_28" data-name="Path 28" d="M162.98,48.26a2.38,2.38,0,1,0-2.16-2.37A2.272,2.272,0,0,0,162.98,48.26Z" fill="#18191c"/>
      <path id="Path_29" data-name="Path 29" d="M185.01,52.86a1.76,1.76,0,1,0-1.76-1.76A1.76,1.76,0,0,0,185.01,52.86Zm-46.34,7.57a.88.88,0,1,0-.88-.88.88.88,0,0,0,.88.88Z" fill="#1c48b0"/>
      <path id="Path_30" data-name="Path 30" d="M170.94,139.69a5.76,5.76,0,1,0-5.76-5.76A5.76,5.76,0,0,0,170.94,139.69Z" fill="#103487"/>
      <path id="Path_31" data-name="Path 31" d="M174.35,137.83a3.9,3.9,0,1,0-3.9-3.9,3.9,3.9,0,0,0,3.9,3.9Z" fill="#18191c"/>
      <path id="Path_32" data-name="Path 32" d="M191.83,131.16l-1.14.4a.3.3,0,0,0,0,.56l1.14.39a.316.316,0,0,1,.18.18l.39,1.14a.3.3,0,0,0,.56,0l.4-1.14a.316.316,0,0,1,.18-.18l1.13-.39a.29.29,0,0,0,0-.56l-1.13-.4a.319.319,0,0,1-.18-.18l-.4-1.13a.29.29,0,0,0-.456-.155.29.29,0,0,0-.1.155L192,131a.317.317,0,0,1-.17.16Z" fill="#107856"/>
      <path id="Path_33" data-name="Path 33" d="M183.3,87.61l-1.13.4a.29.29,0,0,0,0,.56l1.13.39a.32.32,0,0,1,.18.18l.4,1.14a.3.3,0,0,0,.56,0l.39-1.14A.311.311,0,0,1,185,89l1.13-.39a.3.3,0,0,0,0-.56l-1.13-.4a.31.31,0,0,1-.19-.18l-.39-1.13a.29.29,0,0,0-.56,0l-.4,1.13a.32.32,0,0,1-.16.14Z" fill="#ffda13"/>
      <path id="Path_34" data-name="Path 34" d="M134.36,110.93,133.17,113a.481.481,0,0,0,.42.72H136a.488.488,0,0,0,.419-.238.479.479,0,0,0,0-.482l-1.19-2.11a.479.479,0,0,0-.87.04Z" fill="#4a76e9"/>
      <path id="Path_35" data-name="Path 35" d="M164.38,106.66a13.71,13.71,0,1,0-13.71-13.71A13.71,13.71,0,0,0,164.38,106.66Z" fill="#4cb797"/>
      <path id="Path_36" data-name="Path 36" d="M164.38,93l13.69-.71a13.767,13.767,0,0,0-13.69-13Z" fill="#107856"/>
      <path id="Path_37" data-name="Path 37" d="M164.38,93l8.92,10.41a13.687,13.687,0,0,0,1.93-18.78Z" fill="#7de5c5"/>
      <path id="Path_38" data-name="Path 38" d="M157.62,71.33l-3.05,3v2.7a7.29,7.29,0,0,1-7.45,7.31,4.131,4.131,0,0,1-2.82-1.23l-2.68-2.66L154.2,67.92a2.415,2.415,0,1,1,3.42,3.41Z" fill="#4a76e9"/>
      <path id="Path_39" data-name="Path 39" d="M136.5,76.24h6.41l2.1,2.1-3.38,2.15Z" fill="#4a76e9"/>
      <path id="Path_40" data-name="Path 40" d="M137.976,76.85a2.05,2.05,0,0,0-2.9,2.9l1.909,1.91a2.05,2.05,0,0,0,2.9-2.9Z" fill="#9bbafa"/>
      <path id="Path_41" data-name="Path 41" d="M151.84,68.5h-3.47v4.4h3.47Z" fill="#4a76e9"/>
      <path id="Path_42" data-name="Path 42" d="M151.864,66.964a2.05,2.05,0,1,0-2.9,2.9l1.52,1.52a2.05,2.05,0,0,0,2.9-2.9Z" fill="#9bbafa"/>
      <path id="Path_43" data-name="Path 43" d="M148,73.09h-6.37v4.02H148Z" fill="#4a76e9"/>
      <path id="Path_44" data-name="Path 44" d="M143.283,73.676a2.051,2.051,0,1,0-2.9,2.9l2.468,2.467a2.05,2.05,0,0,0,2.9-2.9Zm1.9-5.494a2.05,2.05,0,0,0-2.9,2.9l3.649,3.648a2.05,2.05,0,1,0,2.9-2.9Z" fill="#9bbafa"/>
      <path id="Path_45" data-name="Path 45" d="M170.27,77.2h4.3l1.9,1.91a7.33,7.33,0,0,0,10.45-.1A4.128,4.128,0,0,0,188,76.15V72.37H170.27a2.415,2.415,0,1,0,0,4.83Z" fill="#4a76e9"/>
      <path id="Path_46" data-name="Path 46" d="M176.967,65.13a2.051,2.051,0,1,0-2.9,2.9l6.435,6.434a2.05,2.05,0,1,0,2.9-2.9l-6.434-6.434Zm12.813,4.25v5.98h-5.62V73.24Z" fill="#4a76e9"/>
      <path id="Path_47" data-name="Path 47" d="M185.42,66.49h-4.73V75.6h4.73Z" fill="#4a76e9"/>
      <path id="Path_48" data-name="Path 48" d="M187.217,75.67a2.051,2.051,0,0,0,2.9,2.9l1.909-1.91a2.051,2.051,0,0,0-2.9-2.9ZM183.828,70.6a2.05,2.05,0,0,0,2.9,2.9l2.468-2.469a2.051,2.051,0,0,0-2.9-2.9Zm-4.705-2.7a2.051,2.051,0,0,0,2.9,2.9l2.808-2.808a2.051,2.051,0,0,0-2.9-2.9Zm-5.663.833a2.05,2.05,0,0,0,4.1,0V66.58a2.05,2.05,0,0,0-4.1,0Z" fill="#9bbafa"/>
      <path id="Path_49" data-name="Path 49" d="M134.9,128a1.53,1.53,0,0,0-3.06,0v7.67a1.53,1.53,0,1,0,3.06,0Zm6.62-2.06a1.53,1.53,0,0,0-3.06,0v9.73a1.53,1.53,0,1,0,3.06,0Zm6.57,2.06a1.53,1.53,0,1,0-3.06,0v7.67a1.53,1.53,0,1,0,3.06,0Zm7.75,0a1.53,1.53,0,1,0-3.06,0v7.67a1.53,1.53,0,1,0,3.06,0Z" fill="#801387"/>
      <path id="Path_50" data-name="Path 50" d="M155.84,122.24a1.53,1.53,0,1,0-3.06,0v7.67a1.53,1.53,0,1,0,3.06,0Zm-20.94,2.27a1.53,1.53,0,0,0-3.06,0v7.67a1.53,1.53,0,0,0,3.06,0Zm6.62-5.37a1.53,1.53,0,0,0-3.06,0v7.67a1.53,1.53,0,1,0,3.06,0Zm6.57-5.59a1.53,1.53,0,0,0-3.06,0V132.4a1.53,1.53,0,1,0,3.06,0Z" fill="#c436d1"/>
      <path id="Path_51" data-name="Path 51" d="M184.45,105.1v9l7.2-3.6Z" fill="#9bbafa"/>
      <path id="Path_52" data-name="Path 52" d="M188.311,110.514l-1.842.921,2.254,4.508,1.842-.922Z" fill="#9bbafa"/>
      <path id="Path_53" data-name="Path 53" d="M41.09,108.59h6.27A1.638,1.638,0,0,1,49,110.22V120H41.1V108.59Z" fill="#fae380"/>
      <path id="Path_54" data-name="Path 54" d="M47.36,108.59H41.09L49,113.06v-2.84a1.64,1.64,0,0,0-1.64-1.63Z" fill="#f8b610"/>
      <path id="Path_55" data-name="Path 55" d="M44.54,109.63a.805.805,0,1,0-1.61,0v5.31a.805.805,0,1,0,1.61,0Z" fill="#f8b610"/>
      <path id="Path_56" data-name="Path 56" d="M45.062,102.106l1.506,1.506a2.186,2.186,0,1,1-3.09.007l1.548-1.549Z" fill="#ff9b00"/>
      <path id="Path_57" data-name="Path 57" d="M45.59,105.67h-1.1v2.92h1.1Z" fill="#454a5a"/>
      <path id="Path_58" data-name="Path 58" d="M52.86,120H33.07a28.26,28.26,0,0,0,0,40H52.86a28.279,28.279,0,0,0,0-40Z" fill="#a56847"/>
      <path id="Path_59" data-name="Path 59" d="M51.07,160c5-11.53,5-28.46,0-40H34.86c-5,11.53-5,28.46,0,40h3.31c-5.34-11-5.34-28.95,0-40h9.58c5.34,11,5.34,29,0,40Z" fill="#784343"/>
      <path id="Path_60" data-name="Path 60" d="M27.6,127.68H58.32A28.038,28.038,0,0,0,56.15,124H29.77a28.037,28.037,0,0,0-2.17,3.68Zm2.18,28.38H56.14a29.283,29.283,0,0,0,2.18-3.73H27.6a29.269,29.269,0,0,0,2.18,3.73Z" fill="#c3c7d9"/>
      <path id="Path_61" data-name="Path 61" d="M45.21,134.72a.5.5,0,0,1-.5-.5V120a.5.5,0,0,1,1,0v14.21a.5.5,0,0,1-.5.51Z" fill="#fff"/>
      <g id="Group_1" data-name="Group 1">
        <path id="Path_62" data-name="Path 62" d="M46.93,142.44a.371.371,0,0,1-.37-.37v-4.82a1.26,1.26,0,0,0-2.52,0v4.82a.38.38,0,0,1-.75,0v-4.82a2,2,0,0,1,4,0v4.82A.381.381,0,0,1,46.93,142.44Z"/>
        <path id="Path_63" data-name="Path 63" d="M48.31,142.44a.38.38,0,0,1-.38-.37v-4.82A1.249,1.249,0,0,0,46.68,136H43.92a1.261,1.261,0,0,0-1.26,1.26v4.82a.368.368,0,0,1-.37.37.38.38,0,0,1-.38-.37v-4.82a2,2,0,0,1,2-2h2.76a2,2,0,0,1,2,2v4.82a.372.372,0,0,1-.36.36Z"/>
        <path id="Path_64" data-name="Path 64" d="M49.79,142.44a.381.381,0,0,1-.38-.37v-4.82A1.25,1.25,0,0,0,48.15,136H42.44a1.24,1.24,0,0,0-.887.369,1.254,1.254,0,0,0-.363.891v4.82a.38.38,0,0,1-.642.261.368.368,0,0,1-.108-.261v-4.82a2,2,0,0,1,2-2h5.71a2,2,0,0,1,2,2v4.82a.38.38,0,0,1-.36.36Z"/>
        <path id="Path_65" data-name="Path 65" d="M45.3,135.61A1.61,1.61,0,1,0,43.69,134,1.61,1.61,0,0,0,45.3,135.61Zm0,1.55a.61.61,0,1,0-.61-.61A.61.61,0,0,0,45.3,137.16Z"/>
      </g>
      <path id="Path_66" data-name="Path 66" d="M249.58,151.5H209.7V160h39.89Z" fill="#9097a8"/>
      <path id="Path_67" data-name="Path 67" d="M209.69,151.32H77.14l.01,8.68H209.74Z" fill="#aeb4c6"/>
      <path id="Path_68" data-name="Path 68" d="M235.08,151.5h-42.4v-7.94h42.41Z" fill="#9097a8"/>
      <path id="Path_69" data-name="Path 69" d="M192.66,151.5H91.65v-7.94H192.68Z" fill="#aeb4c6"/>
      <path id="Path_70" data-name="Path 70" d="M185.92,160v-8.5h-2.8V160Zm-26.94,0v-8.5h-2.8V160Zm-26.93.01v-8.5h-2.8v8.5Zm-26.94,0v-8.5h-2.8v8.5Zm65.83-8.5v-7.95h-2.8v7.95Zm-26.94,0v-7.95h-2.8v7.95Zm-26.93,0v-7.95h-2.8v7.95Z" fill="#9ba2b5"/>
      <path id="Path_71" data-name="Path 71" d="M139.9,41.11l-1.13.4a.29.29,0,0,0,0,.56l1.13.39a.292.292,0,0,1,.18.19l.4,1.13a.3.3,0,0,0,.56,0l.39-1.13a.3.3,0,0,1,.19-.19l1.13-.39a.3.3,0,0,0,0-.56l-1.13-.4a.29.29,0,0,1-.19-.18L141,39.8a.29.29,0,0,0-.56,0l-.4,1.13a.275.275,0,0,1-.14.18Z" fill="#e79fd5"/>
      <path id="Path_72" data-name="Path 72" d="M197.73,58.35a.8.8,0,1,0-.8-.8A.8.8,0,0,0,197.73,58.35Z" fill="#f1c8e6"/>
      <path id="Path_73" data-name="Path 73" d="M100.65,156.26h4.13a7.64,7.64,0,0,0,0-15.28h-4.13a7.64,7.64,0,0,0,0,15.28Z" fill="#fff"/>
      <path id="Path_74" data-name="Path 74" d="M111.41,149.07v-.89a2.63,2.63,0,0,0-2.63-2.63h-1.49a2.63,2.63,0,0,0-2.63,2.63v.89a2.63,2.63,0,0,0,2.63,2.63h1.49A2.63,2.63,0,0,0,111.41,149.07Z" fill="#aec7ff" opacity="0.25"/>
      <path id="Path_75" data-name="Path 75" d="M93.01,160h9.92V148.62H93.01Z" fill="#fff"/>
      <path id="Path_76" data-name="Path 76" d="M94.94,150.83a1.19,1.19,0,1,0-1.19-1.19A1.19,1.19,0,0,0,94.94,150.83Zm6.77,0a1.19,1.19,0,1,0-1.19-1.19A1.19,1.19,0,0,0,101.71,150.83Zm-5.35.23,3.08,2.92H96.36Z" fill="#414657"/>
      <path id="Path_77" data-name="Path 77" d="M102.92,156.27l3.47-3.47h-3.47Z" fill="#ccdefa"/>
      <path id="Path_78" data-name="Path 78" d="M95.14,157.01h6.57v-.74H95.14Z" fill="#c3c7d9"/>
    </g>
    <rect id="Rectangle_7" data-name="Rectangle 7" width="138" height="38" rx="3" transform="translate(273 705)" fill="#7289da"/>
    <path id="Polygon_1" data-name="Polygon 1" d="M7,0l7,12H0Z" transform="translate(40 413) rotate(180)" fill="#f04747"/>
    <path id="Polygon_3" data-name="Polygon 3" d="M7,0l7,12H0Z" transform="translate(26 284)" fill="#43b581"/>
    <path id="Polygon_2" data-name="Polygon 2" d="M7,0l7,12H0Z" transform="translate(358 401)" fill="#43b581"/>
    <path id="Icon_material-person" data-name="Icon material-person" d="M18.906,18.906a6.453,6.453,0,1,0-6.453-6.453A6.451,6.451,0,0,0,18.906,18.906Zm0,3.226C14.6,22.132,6,24.294,6,28.585v3.226H31.811V28.585C31.811,24.294,23.213,22.132,18.906,22.132Z" transform="translate(290.188 256.189)" fill="#4f545c"/>
    <path id="Icon_awesome-info-circle" data-name="Icon awesome-info-circle" d="M7.415.562a6.852,6.852,0,1,0,6.852,6.852A6.853,6.853,0,0,0,7.415.562Zm0,3.039a1.16,1.16,0,1,1-1.16,1.16A1.16,1.16,0,0,1,7.415,3.6ZM8.962,10.62a.332.332,0,0,1-.332.332H6.2a.332.332,0,0,1-.332-.332V9.957A.332.332,0,0,1,6.2,9.625h.332V7.857H6.2a.332.332,0,0,1-.332-.332V6.862A.332.332,0,0,1,6.2,6.531H7.967a.332.332,0,0,1,.332.332V9.625H8.63a.332.332,0,0,1,.332.332Z" transform="translate(505.608 218.085)" fill="#b9bbbe"/>
    <path id="Icon_awesome-info-circle-2" data-name="Icon awesome-info-circle" d="M7.415.562a6.852,6.852,0,1,0,6.852,6.852A6.853,6.853,0,0,0,7.415.562Zm0,3.039a1.16,1.16,0,1,1-1.16,1.16A1.16,1.16,0,0,1,7.415,3.6ZM8.962,10.62a.332.332,0,0,1-.332.332H6.2a.332.332,0,0,1-.332-.332V9.957A.332.332,0,0,1,6.2,9.625h.332V7.857H6.2a.332.332,0,0,1-.332-.332V6.862A.332.332,0,0,1,6.2,6.531H7.967a.332.332,0,0,1,.332.332V9.625H8.63a.332.332,0,0,1,.332.332Z" transform="translate(85.608 342.085)" fill="#b9bbbe"/>
    <path id="Icon_awesome-info-circle-3" data-name="Icon awesome-info-circle" d="M7.415.562a6.852,6.852,0,1,0,6.852,6.852A6.853,6.853,0,0,0,7.415.562Zm0,3.039a1.16,1.16,0,1,1-1.16,1.16A1.16,1.16,0,0,1,7.415,3.6ZM8.962,10.62a.332.332,0,0,1-.332.332H6.2a.332.332,0,0,1-.332-.332V9.957A.332.332,0,0,1,6.2,9.625h.332V7.857H6.2a.332.332,0,0,1-.332-.332V6.862A.332.332,0,0,1,6.2,6.531H7.967a.332.332,0,0,1,.332.332V9.625H8.63a.332.332,0,0,1,.332.332Z" transform="translate(435.608 342.085)" fill="#b9bbbe"/>
    <path id="Icon_material-chat-bubble" data-name="Icon material-chat-bubble" d="M39.022,3H7A4.014,4.014,0,0,0,3,7V43.025l8-8H39.022a4.014,4.014,0,0,0,4-4V7A4.014,4.014,0,0,0,39.022,3Z" transform="translate(286.082 372)" fill="#4f545c"/>
    <path id="Icon_ionic-md-eye" data-name="Icon ionic-md-eye" d="M15.438,7.383A14.181,14.181,0,0,0,2.25,16.273a14.227,14.227,0,0,0,26.376,0A14.181,14.181,0,0,0,15.438,7.383Zm0,14.819a5.929,5.929,0,1,1,5.993-5.929A5.978,5.978,0,0,1,15.438,22.2Zm0-9.485a3.556,3.556,0,1,0,3.6,3.556A3.588,3.588,0,0,0,15.438,12.717Z" transform="translate(293.644 374.727)" fill="#2f3136"/>
    <path id="Icon_material-chat-bubble-2" data-name="Icon material-chat-bubble" d="M39.022,3H7A4.014,4.014,0,0,0,3,7V43.025l8-8H39.022a4.014,4.014,0,0,0,4-4V7A4.014,4.014,0,0,0,39.022,3Z" transform="translate(620.082 372)" fill="#4f545c"/>
    <text id="_..." data-name="..." transform="translate(628 393)" fill="#2f3136" font-size="55" font-family="SegoeUI, Segoe UI" letter-spacing="-0.05em"><tspan x="0" y="0">...</tspan></text>
    <g id="Group_2" data-name="Group 2" transform="translate(10 -1)">
      <rect id="Rectangle_8" data-name="Rectangle 8" width="34" height="4" transform="translate(616 263)" fill="#4f545c"/>
      <rect id="Rectangle_9" data-name="Rectangle 9" width="4" height="9" transform="translate(631 260)" fill="#4f545c"/>
      <circle id="Ellipse_1" data-name="Ellipse 1" cx="8" cy="8" r="8" transform="translate(615 273)" fill="#4f545c"/>
      <circle id="Ellipse_2" data-name="Ellipse 2" cx="8" cy="8" r="8" transform="translate(635 273)" fill="#4f545c"/>
      <rect id="Rectangle_10" data-name="Rectangle 10" width="16" height="12" transform="translate(615 268)" fill="#2f3136"/>
      <rect id="Rectangle_11" data-name="Rectangle 11" width="16" height="12" transform="translate(635 268)" fill="#2f3136"/>
      <path id="Polygon_4" data-name="Polygon 4" d="M7,0l7,15H0Z" transform="translate(616 264)" fill="#4f545c"/>
      <path id="Polygon_5" data-name="Polygon 5" d="M7,0l7,15H0Z" transform="translate(636 264)" fill="#4f545c"/>
      <path id="Polygon_6" data-name="Polygon 6" d="M4,0,8,9H0Z" transform="translate(619 270)" fill="#2f3136"/>
      <path id="Polygon_7" data-name="Polygon 7" d="M4,0,8,9H0Z" transform="translate(639 270)" fill="#2f3136"/>
    </g>
    <text id="LURKERS" transform="translate(21 355)" fill="#b9bbbe" font-size="15" font-family="Whitney-Medium, Whitney" font-weight="500" letter-spacing="0.025em"><tspan x="0" y="0">LURKERS</tspan></text>
    <text id="CHATTERS" transform="translate(358 355)" fill="#b9bbbe" font-size="15" font-family="Whitney-Medium, Whitney" font-weight="500" letter-spacing="0.025em"><tspan x="0" y="0">CHATTERS</tspan></text>
    <text id="ENGAGEMENT_RATIO" data-name="ENGAGEMENT RATIO" transform="translate(354 231)" fill="#b9bbbe" font-size="15" font-family="Whitney-Medium, Whitney" font-weight="500" letter-spacing="0.025em"><tspan x="0" y="0">ENGAGEMENT RATIO</tspan></text>
    <text id="TOTAL_MEMBERS" data-name="TOTAL MEMBERS" transform="translate(21 236)" fill="#b9bbbe" font-size="15" font-family="Whitney-Medium, Whitney" font-weight="500" letter-spacing="0.025em"><tspan x="0" y="0">TOTAL MEMBERS</tspan></text>
    <text id="SERVER_INSIGHTS" data-name="SERVER INSIGHTS" transform="translate(21 25)" fill="#fafdff" font-size="15" font-family="Whitney-Medium, Whitney" font-weight="500" letter-spacing="0.025em"><tspan x="0" y="0">SERVER INSIGHTS</tspan></text>
    <text id="Server_Insights_is_a_new_experimental_feature_from_Discord_that_gives_you_visibility_into_how_your_server_is_doing._Is_it_healthy_Are_people_talking_What_s_your_retention_look_like_These_are_all_questions_that_were_hard_or_impossible_to_answer_before." data-name="Server Insights is a new experimental feature from Discord that gives you visibility into how 
your server is doing. Is it healthy? Are people talking? What&apos;s your retention look like? 
These are all questions that were hard or impossible to answer before." transform="translate(21 53)" fill="#b9bbbe" font-size="15" font-family="Whitney-Medium, Whitney" font-weight="500" letter-spacing="0.025em"><tspan x="0" y="0">Server Insights is a new experimental feature from Discord that gives you visibility into how </tspan><tspan x="0" y="17">your server is doing. Is it healthy? Are people talking? What&apos;s your retention look like? </tspan><tspan x="0" y="34">These are all questions that were hard or impossible to answer before. </tspan><tspan x="0" y="51">Now, they&apos;re easy, and come in pretty charts!</tspan></text>
    <text id="_Server_Insights_is_an_alpha_feature_so_there_may_be_bugs_" data-name=" Server Insights is an alpha feature, so there may be bugs!" transform="translate(15 140)" fill="#b9bbbe" font-size="15" font-family="Whitney-Medium, Whitney" font-weight="500" letter-spacing="0.025em"><tspan x="0" y="0" xml:space="preserve"> Server Insights is an </tspan><tspan y="0" fill="#fbfdff">alpha feature</tspan><tspan y="0">, so there may be bugs!</tspan></text>
    <text id="_37_302" data-name="37,302" transform="translate(26 269)" fill="#fff" font-size="24" font-family="Whitney-Bold, Whitney" font-weight="700" letter-spacing="0.025em"><tspan x="0" y="0">37,302</tspan></text>
    <text id="_2_341" data-name="2,341" transform="translate(21 386)" fill="#fff" font-size="24" font-family="Whitney-Bold, Whitney" font-weight="700" letter-spacing="0.025em"><tspan x="0" y="0">2,341</tspan></text>
    <text id="_5_648" data-name="5,648" transform="translate(358 387)" fill="#fff" font-size="24" font-family="Whitney-Bold, Whitney" font-weight="700" letter-spacing="0.025em"><tspan x="0" y="0">5,648</tspan></text>
    <text id="_1_:_0.41" data-name="1 : 0.41" transform="translate(358 270)" fill="#fff" font-size="24" font-family="Whitney-Bold, Whitney" font-weight="700" letter-spacing="0.025em"><tspan x="0" y="0">1 : 0.41</tspan></text>
    <text id="_34_since_last_week" data-name="34% since last week" transform="translate(44 411)" fill="#b9bbbe" font-size="12" font-family="ArialMT, Arial" letter-spacing="0.025em"><tspan x="0" y="0">34% since last week</tspan></text>
    <text id="_34_since_last_week-2" data-name="34% since last week" transform="translate(44 294)" fill="#b9bbbe" font-size="12" font-family="ArialMT, Arial" letter-spacing="0.025em"><tspan x="0" y="0">34% since last week</tspan></text>
    <text id="_203_since_last_week" data-name="203% since last week" transform="translate(376 411)" fill="#b9bbbe" font-size="12" font-family="ArialMT, Arial" letter-spacing="0.025em"><tspan x="0" y="0">203% since last week</tspan></text>
    <text id="Chatters_:_Lurkers" data-name="Chatters : Lurkers" transform="translate(358 294)" fill="#b9bbbe" font-size="12" font-family="ArialMT, Arial" letter-spacing="0.025em"><tspan x="0" y="0">Chatters : Lurkers</tspan></text>
    <text id="See_More_Insights" data-name="See More Insights" transform="translate(286 729)" fill="#fff" font-size="14" font-family="Whitney-Medium, Whitney" font-weight="500" letter-spacing="0.025em"><tspan x="0" y="0">See More Insights</tspan></text>
    <text id="Want_to_dive_deeper_See_more_detailed_analytics_about_your_server_in_the_Developer_Portal_" data-name="Want to dive deeper? See more detailed analytics about
your server in the Developer Portal!" transform="translate(342 663)" fill="#b9bbbe" font-size="14" font-family="Whitney-Medium, Whitney" font-weight="500" letter-spacing="0.025em"><tspan x="-172.928" y="0">Want to dive deeper? See more detailed analytics about</tspan><tspan x="-109.62" y="16">your server in the Developer Portal!</tspan></text>
  </g>
</svg>
