<svg xmlns="http://www.w3.org/2000/svg" xmlns:svgjs="http://svgjs.com/svgjs" xmlns:xlink="http://www.w3.org/1999/xlink" width="288" height="288"><svg xmlns="http://www.w3.org/2000/svg" width="288" height="288" viewBox="0 0 32 32"><path fill="#fff" d="m13.7 15.7 1.3-1.3V22c0 .6.4 1 1 1s1-.4 1-1v-7.6l1.3 1.3c.2.2.5.3.7.3s.5-.1.7-.3c.4-.4.4-1 0-1.4l-3-3c-.1-.1-.2-.2-.3-.2-.2-.1-.5-.1-.8 0-.1.1-.2.1-.3.2l-3 3c-.4.4-.4 1 0 1.4s1 .4 1.4 0z" class="color000 svgShape"/><path fill="#fff" d="M3 17c0 7.2 5.8 13 13 13s13-5.8 13-13S23.2 4 16 4 3 9.8 3 17zM15 6.1V7c0 .6.4 1 1 1s1-.4 1-1v-.9c5.3.5 9.5 4.7 9.9 9.9H26c-.6 0-1 .4-1 1s.4 1 1 1h.9c-.5 5.3-4.7 9.5-9.9 9.9V27c0-.6-.4-1-1-1s-1 .4-1 1v.9c-5.3-.5-9.5-4.7-9.9-9.9H6c.6 0 1-.4 1-1s-.4-1-1-1h-.9c.4-5.3 4.6-9.5 9.9-9.9zM3 8c.3 0 .5-.1.7-.3l4-4c.4-.4.4-1 0-1.4s-1-.4-1.4 0l-4 4c-.4.4-.4 1 0 1.4.2.2.4.3.7.3zm25.3-.3c.2.2.4.3.7.3s.5-.1.7-.3c.4-.4.4-1 0-1.4l-4-4c-.4-.4-1-.4-1.4 0s-.4 1 0 1.4l4 4z" class="color000 svgShape"/></svg></svg>